<svg width="43" height="66" viewBox="0 0 43 66" fill="none" xmlns="http://www.w3.org/2000/svg">
<path d="M15.8385 15.112C15.8385 14.5597 15.3908 14.112 14.8385 14.112H13.5827C13.0304 14.112 12.5827 14.5597 12.5827 15.112V16.4116C12.5827 16.9639 13.0304 17.4116 13.5827 17.4116H14.8385C15.3908 17.4116 15.8385 16.9639 15.8385 16.4116V15.112ZM22.8154 15.112C22.8154 14.5597 22.3677 14.112 21.8154 14.112H20.5596C20.0073 14.112 19.5596 14.5597 19.5596 15.112V16.4116C19.5596 16.9639 20.0073 17.4116 20.5596 17.4116H21.8154C22.3677 17.4116 22.8154 16.9639 22.8154 16.4116V15.112ZM29.7924 15.112C29.7924 14.5597 29.3446 14.112 28.7924 14.112H27.5365C26.9842 14.112 26.5365 14.5597 26.5365 15.112V16.4116C26.5365 16.9639 26.9842 17.4116 27.5365 17.4116H28.7924C29.3446 17.4116 29.7924 16.9639 29.7924 16.4116V15.112ZM34.4436 3.77104H32.7935C32.2412 3.77104 31.7935 3.32333 31.7935 2.77104V1C31.7935 0.447716 31.3458 0 30.7935 0H29.8621C29.3098 0 28.8621 0.447715 28.8621 1V2.77104C28.8621 3.32333 28.4144 3.77104 27.8621 3.77104H14.5129C13.9606 3.77104 13.5129 3.32333 13.5129 2.77104V1C13.5129 0.447716 13.0652 0 12.5129 0H11.5815C11.0292 0 10.5815 0.447715 10.5815 1V2.77104C10.5815 3.32333 10.1338 3.77104 9.58152 3.77104H7.93138C5.86622 3.77104 5.01861 4.67256 5.01861 6.74663L5 32.0244C5 34.0985 5.86622 35 7.93138 35H34.4436C36.4902 35 37.375 34.0985 37.375 32.0244V6.74663C37.375 4.67256 36.4902 3.77104 34.4436 3.77104ZM34.4436 31.0244C34.4436 31.5767 33.9959 32.0244 33.4436 32.0244H8.93138C8.3791 32.0244 7.93138 31.5767 7.93138 31.0244V11.8123C7.93138 11.26 8.3791 10.8123 8.93138 10.8123H33.4436C33.9959 10.8123 34.4436 11.26 34.4436 11.8123V31.0244Z" fill="current"/>
<path d="M12.5827 20.7685C12.5827 20.2162 13.0304 19.7685 13.5827 19.7685H14.8385C15.3908 19.7685 15.8385 20.2162 15.8385 20.7685V22.0682C15.8385 22.6205 15.3908 23.0682 14.8385 23.0682H13.5827C13.0304 23.0682 12.5827 22.6205 12.5827 22.0682V20.7685Z" fill="current"/>
<path d="M19.5596 20.7685C19.5596 20.2162 20.0073 19.7685 20.5596 19.7685H21.8154C22.3677 19.7685 22.8154 20.2162 22.8154 20.7685V22.0682C22.8154 22.6205 22.3677 23.0682 21.8154 23.0682H20.5596C20.0073 23.0682 19.5596 22.6205 19.5596 22.0682V20.7685Z" fill="current"/>
<path d="M26.5365 20.7685C26.5365 20.2162 26.9842 19.7685 27.5365 19.7685H28.7924C29.3446 19.7685 29.7924 20.2162 29.7924 20.7685V22.0682C29.7924 22.6205 29.3446 23.0682 28.7924 23.0682H27.5365C26.9842 23.0682 26.5365 22.6205 26.5365 22.0682V20.7685Z" fill="current"/>
<path d="M12.5827 26.6608C12.5827 26.1085 13.0304 25.6608 13.5827 25.6608H14.8385C15.3908 25.6608 15.8385 26.1085 15.8385 26.6608V27.9604C15.8385 28.5127 15.3908 28.9604 14.8385 28.9604H13.5827C13.0304 28.9604 12.5827 28.5127 12.5827 27.9604V26.6608Z" fill="current"/>
<path d="M19.5596 26.6608C19.5596 26.1085 20.0073 25.6608 20.5596 25.6608H21.8154C22.3677 25.6608 22.8154 26.1085 22.8154 26.6608V27.9604C22.8154 28.5127 22.3677 28.9604 21.8154 28.9604H20.5596C20.0073 28.9604 19.5596 28.5127 19.5596 27.9604V26.6608Z" fill="current"/>
<path d="M26.5365 26.6608C26.5365 26.1085 26.9842 25.6608 27.5365 25.6608H28.7924C29.3446 25.6608 29.7924 26.1085 29.7924 26.6608V27.9604C29.7924 28.5127 29.3446 28.9604 28.7924 28.9604H27.5365C26.9842 28.9604 26.5365 28.5127 26.5365 27.9604V26.6608Z" fill="current"/>
<path d="M7.20344 49.125C7.19823 50.8229 6.75031 52.2656 5.85969 53.4531C4.97427 54.6406 3.60448 55.5781 1.75031 56.2656L1.09406 55.2188C2.87531 54.5781 4.14094 53.7109 4.89094 52.6172L1.26594 53.0156L1.04719 51.8125L5.44563 51.5469C5.58625 51.1562 5.68 50.75 5.72688 50.3281H1.68781V49.125H7.20344ZM3.50031 56.2344H12.8909V59.6562H5.00031V60.9844H13.4222V62.1562H3.53156V58.5625H11.4378V57.4062H3.50031V56.2344ZM8.39094 48.5938H9.79719V51.4375H11.4847V48.3438H12.8909V55.6406H11.4847V52.6562H9.79719V55.5469H8.39094V48.5938ZM26.6953 58.6406H25.2266V48.3438H26.6953V58.6406ZM15.8047 49.3125H22.2422V53.4844H17.2891V55.5C18.6849 55.4896 19.8568 55.4531 20.8047 55.3906C21.7526 55.3281 22.7161 55.2083 23.6953 55.0312L23.8516 56.25C22.8099 56.4323 21.7839 56.5547 20.7734 56.6172C19.763 56.6797 18.5078 56.7135 17.0078 56.7188H15.8359V52.3594H20.7734V50.5H15.8047V49.3125ZM17.4453 57.8281H18.9297V60.8281H27.0859V62.0312H17.4453V57.8281ZM36.3591 50.8594H31.4372V57.6875C32.6924 57.6771 33.7523 57.6406 34.6169 57.5781C35.4815 57.5156 36.3539 57.401 37.2341 57.2344L37.4059 58.4531C36.4424 58.6354 35.4893 58.7604 34.5466 58.8281C33.6091 58.8906 32.4424 58.9219 31.0466 58.9219H29.9372V49.625H36.3591V50.8594ZM35.5622 53.3281H39.4528V48.3281H40.9372V62.3594H39.4528V54.5625H35.5622V53.3281Z" fill="current"/>
</svg>
