<svg xmlns="http://www.w3.org/2000/svg" width="34" height="35" viewBox="0 0 34 35" fill="none">
  <path d="M11.4267 15.112C11.4267 14.5597 10.979 14.112 10.4267 14.112H9.08769C8.53541 14.112 8.08769 14.5597 8.08769 15.112V16.4116C8.08769 16.9639 8.53541 17.4116 9.08769 17.4116H10.4267C10.979 17.4116 11.4267 16.9639 11.4267 16.4116V15.112ZM18.5816 15.112C18.5816 14.5597 18.1339 14.112 17.5816 14.112H16.2427C15.6904 14.112 15.2427 14.5597 15.2427 15.112V16.4116C15.2427 16.9639 15.6904 17.4116 16.2427 17.4116H17.5816C18.1339 17.4116 18.5816 16.9639 18.5816 16.4116V15.112ZM25.7366 15.112C25.7366 14.5597 25.2889 14.112 24.7366 14.112H23.3976C22.8453 14.112 22.3976 14.5597 22.3976 15.112V16.4116C22.3976 16.9639 22.8453 17.4116 23.3976 17.4116H24.7366C25.2889 17.4116 25.7366 16.9639 25.7366 16.4116V15.112ZM30.5066 3.77104H28.7888C28.2365 3.77104 27.7888 3.32333 27.7888 2.77104V1C27.7888 0.447716 27.3411 0 26.7888 0H25.7826C25.2303 0 24.7826 0.447715 24.7826 1V2.77104C24.7826 3.32333 24.3349 3.77104 23.7826 3.77104H10.0417C9.4894 3.77104 9.04169 3.32333 9.04169 2.77104V1C9.04169 0.447716 8.59397 0 8.04169 0H7.03549C6.48321 0 6.03549 0.447715 6.03549 1V2.77104C6.03549 3.32333 5.58778 3.77104 5.03549 3.77104H3.31772C1.19985 3.77104 0.330603 4.67256 0.330603 6.74663L0.311523 32.0244C0.311523 34.0985 1.19985 35 3.31772 35H30.5066C32.6054 35 33.5128 34.0985 33.5128 32.0244V6.74663C33.5128 4.67256 32.6054 3.77104 30.5066 3.77104ZM30.5066 31.0244C30.5066 31.5767 30.0589 32.0244 29.5066 32.0244H4.31772C3.76543 32.0244 3.31772 31.5767 3.31772 31.0244V11.8123C3.31772 11.26 3.76543 10.8123 4.31772 10.8123H29.5066C30.0589 10.8123 30.5066 11.26 30.5066 11.8123V31.0244Z" fill="current"/>
  <path d="M8.08769 20.7685C8.08769 20.2162 8.53541 19.7685 9.08769 19.7685H10.4267C10.979 19.7685 11.4267 20.2162 11.4267 20.7685V22.0682C11.4267 22.6205 10.979 23.0682 10.4267 23.0682H9.08769C8.53541 23.0682 8.08769 22.6205 8.08769 22.0682V20.7685Z" fill="current"/>
  <path d="M15.2427 20.7685C15.2427 20.2162 15.6904 19.7685 16.2427 19.7685H17.5816C18.1339 19.7685 18.5816 20.2162 18.5816 20.7685V22.0682C18.5816 22.6205 18.1339 23.0682 17.5816 23.0682H16.2427C15.6904 23.0682 15.2427 22.6205 15.2427 22.0682V20.7685Z" fill="current"/>
  <path d="M22.3976 20.7685C22.3976 20.2162 22.8453 19.7685 23.3976 19.7685H24.7366C25.2889 19.7685 25.7366 20.2162 25.7366 20.7685V22.0682C25.7366 22.6205 25.2889 23.0682 24.7366 23.0682H23.3976C22.8453 23.0682 22.3976 22.6205 22.3976 22.0682V20.7685Z" fill="current"/>
  <path d="M8.08769 26.6608C8.08769 26.1085 8.53541 25.6608 9.08769 25.6608H10.4267C10.979 25.6608 11.4267 26.1085 11.4267 26.6608V27.9604C11.4267 28.5127 10.979 28.9604 10.4267 28.9604H9.08769C8.53541 28.9604 8.08769 28.5127 8.08769 27.9604V26.6608Z" fill="current"/>
  <path d="M15.2427 26.6608C15.2427 26.1085 15.6904 25.6608 16.2427 25.6608H17.5816C18.1339 25.6608 18.5816 26.1085 18.5816 26.6608V27.9604C18.5816 28.5127 18.1339 28.9604 17.5816 28.9604H16.2427C15.6904 28.9604 15.2427 28.5127 15.2427 27.9604V26.6608Z" fill="current"/>
  <path d="M22.3976 26.6608C22.3976 26.1085 22.8453 25.6608 23.3976 25.6608H24.7366C25.2889 25.6608 25.7366 26.1085 25.7366 26.6608V27.9604C25.7366 28.5127 25.2889 28.9604 24.7366 28.9604H23.3976C22.8453 28.9604 22.3976 28.5127 22.3976 27.9604V26.6608Z" fill="current"/>
</svg>