<svg width="90" height="90" viewBox="0 0 90 90" fill="none" xmlns="http://www.w3.org/2000/svg">
<g id="mingcute:close-line" clip-path="url(#clip0_1401_1088)">
<g id="Group">
<path id="Vector" fill-rule="evenodd" clip-rule="evenodd" d="M44.9999 50.3021L66.2137 71.5158C66.921 72.1989 67.8682 72.5769 68.8514 72.5684C69.8347 72.5598 70.7752 72.1654 71.4705 71.4701C72.1658 70.7749 72.5602 69.8343 72.5687 68.8511C72.5773 67.8678 72.1993 66.9206 71.5162 66.2133L50.3024 44.9996L71.5162 23.7858C72.1993 23.0786 72.5773 22.1313 72.5687 21.1481C72.5602 20.1648 72.1658 19.2243 71.4705 18.529C70.7752 17.8337 69.8347 17.4393 68.8514 17.4308C67.8682 17.4223 66.921 17.8002 66.2137 18.4833L44.9999 39.6971L23.7862 18.4833C23.0758 17.8171 22.134 17.4535 21.1602 17.4693C20.1864 17.4851 19.2569 17.8791 18.5685 18.5681C17.88 19.257 17.4866 20.1867 17.4715 21.1605C17.4564 22.1344 17.8207 23.0759 18.4874 23.7858L39.6974 44.9996L18.4837 66.2133C18.1255 66.5593 17.8399 66.973 17.6433 67.4306C17.4468 67.8881 17.3433 68.3802 17.339 68.8781C17.3347 69.376 17.4296 69.8698 17.6181 70.3307C17.8067 70.7915 18.0851 71.2102 18.4372 71.5623C18.7893 71.9144 19.208 72.1929 19.6689 72.3814C20.1297 72.57 20.6235 72.6648 21.1215 72.6605C21.6194 72.6562 22.1114 72.5527 22.569 72.3562C23.0265 72.1597 23.4403 71.874 23.7862 71.5158L44.9999 50.3021Z" fill="#F3E9DF"/>
</g>
</g>
<defs>
<clipPath id="clip0_1401_1088">
<rect width="90" height="90" fill="white"/>
</clipPath>
</defs>
</svg>
