<svg xmlns="http://www.w3.org/2000/svg" width="36" height="36" viewBox="0 0 36 36" fill="none">
  <g clip-path="url(#clip0_872_38)">
    <path fill-rule="evenodd" clip-rule="evenodd" d="M18 20.1212L26.4855 28.6067C26.7684 28.88 27.1473 29.0312 27.5406 29.0277C27.9339 29.0243 28.3101 28.8666 28.5882 28.5885C28.8663 28.3103 29.0241 27.9341 29.0275 27.5408C29.0309 27.1475 28.8797 26.7686 28.6065 26.4857L20.121 18.0002L28.6065 9.51472C28.8797 9.23182 29.0309 8.85292 29.0275 8.45962C29.0241 8.06633 28.8663 7.69011 28.5882 7.412C28.3101 7.13388 27.9339 6.97613 27.5406 6.97271C27.1473 6.9693 26.7684 7.12049 26.4855 7.39372L18 15.8792L9.51448 7.39372C9.2303 7.12724 8.8536 6.98177 8.46407 6.9881C8.07455 6.99442 7.70277 7.15205 7.42739 7.42761C7.15202 7.70318 6.99466 8.07508 6.98861 8.46461C6.98256 8.85413 7.12829 9.23074 7.39498 9.51472L15.879 18.0002L7.39348 26.4857C7.25021 26.6241 7.13594 26.7896 7.05733 26.9726C6.97871 27.1556 6.93733 27.3525 6.9356 27.5516C6.93387 27.7508 6.97183 27.9483 7.04725 28.1327C7.12267 28.317 7.23405 28.4845 7.37489 28.6253C7.51573 28.7662 7.6832 28.8775 7.86755 28.953C8.05189 29.0284 8.24941 29.0663 8.44858 29.0646C8.64775 29.0629 8.84458 29.0215 9.02759 28.9429C9.21059 28.8643 9.37611 28.75 9.51448 28.6067L18 20.1212Z" fill="#2C2C2C"/>
  </g>
  <defs>
    <clipPath id="clip0_872_38">
      <rect width="36" height="36" fill="white"/>
    </clipPath>
  </defs>
</svg>