<svg width="23" height="22" viewBox="0 0 23 22" fill="none" xmlns="http://www.w3.org/2000/svg">
<path d="M7.89651 10.725C7.11814 10.725 6.48642 11.341 6.48642 12.1C6.48642 12.859 7.11814 13.475 7.89651 13.475C8.67488 13.475 9.3066 12.859 9.3066 12.1C9.3066 11.341 8.67488 10.725 7.89651 10.725ZM14.6649 10.725C13.8866 10.725 13.2549 11.341 13.2549 12.1C13.2549 12.859 13.8866 13.475 14.6649 13.475C15.4433 13.475 16.075 12.859 16.075 12.1C16.075 11.341 15.4433 10.725 14.6649 10.725ZM11.2807 0C5.05377 0 0 4.928 0 11C0 17.072 5.05377 22 11.2807 22C17.5077 22 22.5615 17.072 22.5615 11C22.5615 4.928 17.5077 0 11.2807 0ZM11.2807 20.2681C5.8259 20.2681 1.77611 16.3191 1.77611 11C1.77611 10.681 1.79868 9.89392 1.83252 9.58591C4.49477 8.43091 7.0843 6.30791 8.18981 3.67891C10.2316 6.49492 13.5933 8.33191 17.3949 8.33191C18.2748 8.33191 19.6009 8.23291 20.4131 8.04591C20.65 8.82691 20.7853 9.66292 20.7853 11C20.7853 16.3191 16.7356 20.2681 11.2807 20.2681Z" fill="#D7AB6E"/>
</svg>
