<svg width="26" height="26" viewBox="0 0 26 26" fill="none" xmlns="http://www.w3.org/2000/svg">
<g clip-path="url(#clip0_1547_2545)">
<circle cx="7.92518" cy="9.5778" r="4.5778" stroke="#D7AB6E" stroke-width="2"/>
<rect x="15.7371" y="5.36841" width="10.2632" height="1.71053" rx="0.855263" fill="#D7AB6E"/>
<rect x="15.0529" y="11.5264" width="10.9474" height="1.71053" rx="0.855263" fill="#D7AB6E"/>
<rect x="17.7898" y="17.6843" width="8.21053" height="1.71053" rx="0.855263" fill="#D7AB6E"/>
<path fill-rule="evenodd" clip-rule="evenodd" d="M2.15207 21.1048C0.977145 21.1048 0.0364444 20.0789 0.446195 18.9777C1.60048 15.8757 4.5712 13.6677 8.0539 13.6677C11.5366 13.6677 14.5073 15.8757 15.6616 18.9777C15.7537 19.2251 15.7776 19.4687 15.7459 19.6977C15.7217 20.0806 15.5251 20.4167 15.2329 20.6293C14.9045 20.9226 14.4509 21.1048 13.9557 21.1048H2.15207Z" fill="#D7AB6E"/>
</g>
<defs>
<clipPath id="clip0_1547_2545">
<rect width="26" height="26" fill="white"/>
</clipPath>
</defs>
</svg>
