<svg width="26" height="26" viewBox="0 0 26 26" fill="none" xmlns="http://www.w3.org/2000/svg">
<path d="M23.8316 21.7482C23.8326 22.3011 23.3846 22.7499 22.8316 22.7499H3.16669C2.6144 22.7499 2.16669 22.3022 2.16669 21.7499V4.24989C2.16669 3.6976 2.6144 3.24989 3.16669 3.24989H3.33335C3.88564 3.24989 4.33335 3.6976 4.33335 4.24989V13.0982C4.33335 14.1216 5.68853 14.4843 6.19969 13.5976L9.79035 7.36949C10.0669 6.88975 10.6807 6.72611 11.1594 7.00449L16.4669 10.091C16.9451 10.3691 17.5582 10.2061 17.8352 9.72727L21.4261 3.5194C21.7026 3.04144 22.3141 2.87802 22.7922 3.15434L23.3023 3.4492C23.6109 3.62759 23.8012 3.95678 23.8018 4.31325L23.8316 21.7482Z" fill="#D7AB6E"/>
</svg>
