<svg width="43" height="65" viewBox="0 0 43 65" fill="none" xmlns="http://www.w3.org/2000/svg">
<path d="M20.796 11.4208C22.4201 11.4969 23.544 12.9479 24.0238 14.0396C24.2399 14.5312 24.7087 14.96 25.2457 14.96H25.5688C26.1369 14.96 26.5999 14.4834 26.4904 13.9259C25.9506 11.1776 23.7207 9.537 20.745 9.537C16.988 9.537 14.2 11.9 14.2 17.238C14.2 20.536 15.781 24.446 20.728 24.446C23.9435 24.446 25.8878 22.4098 26.4245 20.4403C26.5721 19.8987 26.114 19.431 25.5527 19.431H25.2006C24.6681 19.431 24.2103 19.8578 23.9672 20.3316C23.4499 21.3395 22.2679 22.5196 20.762 22.5962C18.535 22.5282 16.8828 20.077 16.8828 17.238C16.8828 12.325 19.776 11.4548 20.796 11.4208ZM21 0C11.616 0 4 7.616 4 17C4 26.384 11.616 34 21 34C30.384 34 38 26.384 38 17C38 7.616 30.384 0 21 0ZM21 31.3172C12.7858 31.3172 6.68281 25.2142 6.68281 17C6.68281 8.78581 12.7858 2.68281 21 2.68281C29.2142 2.68281 35.3172 8.78581 35.3172 17C35.3172 25.2142 29.2142 31.3172 21 31.3172Z" fill="#2C2C2C"/>
<path d="M13.7659 59.6562H0.953438V58.3906H6.57844V55.4062H2.07844V54.2344H4.17219V49.8281H2.04719V48.625H12.5941V49.8281H10.4534V54.2344H12.5472V55.4062H8.04719V58.3906H13.7659V59.6562ZM9.00031 54.2344V49.8281H5.64094V54.2344H9.00031ZM26.7109 57.5156H25.2266V47.3438H26.7109V57.5156ZM15.3828 51.75C15.3828 51.0885 15.5469 50.4948 15.875 49.9688C16.2031 49.4427 16.651 49.0312 17.2188 48.7344C17.7865 48.4323 18.4193 48.2812 19.1172 48.2812C19.8151 48.2812 20.4453 48.4323 21.0078 48.7344C21.5755 49.0312 22.0208 49.4427 22.3438 49.9688C22.6719 50.4948 22.8359 51.0885 22.8359 51.75C22.8359 52.4219 22.6719 53.0234 22.3438 53.5547C22.0208 54.0807 21.5755 54.4922 21.0078 54.7891C20.4453 55.0859 19.8151 55.2344 19.1172 55.2344C18.4193 55.2344 17.7865 55.0859 17.2188 54.7891C16.651 54.4922 16.2031 54.0807 15.875 53.5547C15.5469 53.0234 15.3828 52.4219 15.3828 51.75ZM16.8359 51.75C16.8359 52.1823 16.9323 52.5651 17.125 52.8984C17.3229 53.2266 17.5964 53.4818 17.9453 53.6641C18.2943 53.8464 18.6849 53.9375 19.1172 53.9375C19.5443 53.9375 19.9297 53.8464 20.2734 53.6641C20.6172 53.4818 20.888 53.2266 21.0859 52.8984C21.2839 52.5651 21.3828 52.1823 21.3828 51.75C21.3828 51.3281 21.2839 50.9531 21.0859 50.625C20.888 50.2917 20.6172 50.0339 20.2734 49.8516C19.9297 49.6693 19.5443 49.5781 19.1172 49.5781C18.6849 49.5781 18.2943 49.6693 17.9453 49.8516C17.5964 50.0339 17.3229 50.2917 17.125 50.625C16.9323 50.9531 16.8359 51.3281 16.8359 51.75ZM17.5547 56.4844H19.0547V59.8281H27.1328V61.0312H17.5547V56.4844ZM40.6091 55.9688H30.8591V48.4844H40.4684V49.6875H32.3591V51.5781H40.1716V52.75H32.3591V54.7812H40.6091V55.9688ZM29.2497 58.3438H42.0622V59.5625H29.2497V58.3438Z" fill="#2C2C2C"/>
</svg>
