<svg width="43" height="65" viewBox="0 0 43 65" fill="none" xmlns="http://www.w3.org/2000/svg">
<path d="M15.9 16.575C14.727 16.575 13.775 17.527 13.775 18.7C13.775 19.873 14.727 20.825 15.9 20.825C17.073 20.825 18.025 19.873 18.025 18.7C18.025 17.527 17.073 16.575 15.9 16.575ZM26.1 16.575C24.927 16.575 23.975 17.527 23.975 18.7C23.975 19.873 24.927 20.825 26.1 20.825C27.273 20.825 28.225 19.873 28.225 18.7C28.225 17.527 27.273 16.575 26.1 16.575ZM21 0C11.616 0 4 7.616 4 17C4 26.384 11.616 34 21 34C30.384 34 38 26.384 38 17C38 7.616 30.384 0 21 0ZM21 31.3234C12.7796 31.3234 6.6766 25.2204 6.6766 17C6.6766 16.507 6.7106 15.2906 6.7616 14.8146C10.7736 13.0296 14.676 9.7486 16.342 5.6856C19.419 10.0376 24.485 12.8766 30.214 12.8766C31.54 12.8766 33.5384 12.7236 34.7624 12.4346C35.1194 13.6416 35.3234 14.9336 35.3234 17C35.3234 25.2204 29.2204 31.3234 21 31.3234Z" fill="#2C2C2C"/>
<path d="M13.7659 59.5781H0.953438V58.3281H13.7659V59.5781ZM2.04719 48.6719H12.5941V49.8906H10.4534V54.5625H12.5472V55.75H2.07844V54.5625H4.17219V49.8906H2.04719V48.6719ZM9.00031 54.5625V49.8906H5.64094V54.5625H9.00031ZM27.9141 59.6562H15.1016V58.4062H20.7422V55.9531H16.6641V51.5H24.8828V49.5312H16.6328V48.3125H26.3516V52.6875H18.1328V54.7344H26.6797V55.9531H22.2109V58.4062H27.9141V59.6562ZM40.8903 54.5625H39.3903V47.3281H40.8903V54.5625ZM29.4841 52.9531C29.8278 52.9531 30.3955 52.9479 31.1872 52.9375V49.4219H29.8591V48.25H37.4684V49.4219H36.1247V52.7344C36.8278 52.6875 37.4893 52.625 38.1091 52.5469L38.1716 53.625C36.9268 53.8125 35.5908 53.9453 34.1637 54.0234C32.7367 54.1016 31.32 54.1406 29.9137 54.1406H29.6559L29.4841 52.9531ZM31.5934 55.2031H40.8903V58.6719H33.0934V60H41.3747V61.1875H31.6403V57.5938H39.4216V56.375H31.5934V55.2031ZM32.6091 52.9062C33.5518 52.875 34.2497 52.8464 34.7028 52.8203V49.4219H32.6091V52.9062Z" fill="#2C2C2C"/>
</svg>
