<svg width="35" height="64" viewBox="0 0 35 64" fill="none" xmlns="http://www.w3.org/2000/svg">
<path d="M32.9651 1.62791C32.9651 0.728839 32.2363 0 31.3372 0H3.66279C2.76372 0 2.03488 0.728839 2.03488 1.62791C2.03488 2.52698 2.76372 3.25581 3.66279 3.25581H31.3372C32.2363 3.25581 32.9651 2.52698 32.9651 1.62791ZM33.9826 20.3488C34.5445 20.3488 35 19.8933 35 19.3314V16.4771C35 16.3454 34.987 16.214 34.9612 16.0849L33.2867 7.71242C33.0997 6.77757 32.2789 6.10465 31.3255 6.10465H3.67449C2.72113 6.10465 1.9003 6.77757 1.71333 7.71242L0.0388386 16.0849C0.0130094 16.214 0 16.3454 0 16.4771V19.3314C0 19.8933 0.455524 20.3488 1.01744 20.3488C1.57936 20.3488 2.03488 20.8044 2.03488 21.3663V30.5581C2.03488 31.6627 2.93031 32.5581 4.03488 32.5581H18.7558C19.8604 32.5581 20.7558 31.6627 20.7558 30.5581V22.3488C20.7558 21.2443 21.6512 20.3488 22.7558 20.3488H27.7093C28.8139 20.3488 29.7093 21.2443 29.7093 22.3488V30.9302C29.7093 31.8293 30.4381 32.5581 31.3372 32.5581C32.2363 32.5581 32.9651 31.8293 32.9651 30.9302V21.3663C32.9651 20.8044 33.4206 20.3488 33.9826 20.3488ZM17.5 27.3023C17.5 28.4069 16.6046 29.3023 15.5 29.3023H7.2907C6.18613 29.3023 5.2907 28.4069 5.2907 27.3023V22.3488C5.2907 21.2443 6.18613 20.3488 7.2907 20.3488H15.5C16.6046 20.3488 17.5 21.2443 17.5 22.3488V27.3023Z" fill="#2C2C2C"/>
<path d="M8.35563 48.5625C8.35563 49.1719 8.49104 49.7578 8.76188 50.3203C9.03792 50.8828 9.43115 51.3802 9.94156 51.8125C10.452 52.2448 11.0483 52.5729 11.7306 52.7969L10.9338 53.9688C10.1785 53.7031 9.51708 53.3099 8.94938 52.7891C8.38688 52.263 7.95198 51.651 7.64469 50.9531C7.3374 51.75 6.88948 52.4427 6.30094 53.0312C5.7176 53.6198 5.02229 54.0625 4.215 54.3594L3.41813 53.1719C4.13688 52.9167 4.75406 52.5521 5.26969 52.0781C5.79052 51.6042 6.18896 51.0547 6.465 50.4297C6.74104 49.7995 6.88167 49.1354 6.88688 48.4375V47.0625H8.35563V48.5625ZM5.30875 57.7031C5.30875 57.1615 5.49625 56.6953 5.87125 56.3047C6.25146 55.9141 6.79313 55.6172 7.49625 55.4141C8.20458 55.2109 9.04313 55.1094 10.0119 55.1094C10.965 55.1094 11.7905 55.2109 12.4884 55.4141C13.1864 55.6172 13.7202 55.9141 14.09 56.3047C14.465 56.6953 14.6525 57.1615 14.6525 57.7031C14.6525 58.25 14.465 58.7188 14.09 59.1094C13.7202 59.5 13.1864 59.7943 12.4884 59.9922C11.7957 60.1953 10.9702 60.2969 10.0119 60.2969C9.04313 60.2969 8.20458 60.1953 7.49625 59.9922C6.79313 59.7943 6.25146 59.5 5.87125 59.1094C5.49625 58.7188 5.30875 58.25 5.30875 57.7031ZM6.79313 57.7031C6.78792 58.1615 7.06656 58.513 7.62906 58.7578C8.19677 59.0026 8.99104 59.1302 10.0119 59.1406C11.0275 59.1302 11.814 59.0026 12.3713 58.7578C12.9285 58.513 13.2046 58.1615 13.1994 57.7031C13.1994 57.4062 13.0744 57.151 12.8244 56.9375C12.5744 56.724 12.2098 56.5625 11.7306 56.4531C11.2515 56.3385 10.6785 56.2812 10.0119 56.2812C9.34 56.2812 8.76188 56.3385 8.2775 56.4531C7.79833 56.5625 7.43115 56.724 7.17594 56.9375C6.92073 57.151 6.79313 57.4062 6.79313 57.7031ZM13.0431 46.3281H14.5275V49.8438H16.5588V51.0938H14.5275V54.7812H13.0431V46.3281ZM29.3475 54.4844H27.8631V50.9688H25.2381V49.7344H27.8631V46.3281H29.3475V54.4844ZM17.6912 53.2344C18.3944 52.9948 19.009 52.6432 19.535 52.1797C20.061 51.7109 20.4647 51.1771 20.7459 50.5781C21.0324 49.974 21.1756 49.3542 21.1756 48.7188V48.3906H18.1444V47.1719H25.6912V48.3906H22.6912V48.7188C22.686 49.3021 22.8189 49.8724 23.0897 50.4297C23.3605 50.9818 23.7511 51.4792 24.2616 51.9219C24.772 52.3594 25.3735 52.6979 26.0662 52.9375L25.3006 54.1094C24.5298 53.8385 23.8579 53.4375 23.285 52.9062C22.7121 52.375 22.2694 51.7552 21.9569 51.0469C21.6496 51.8281 21.1939 52.5104 20.5897 53.0938C19.9907 53.6771 19.2798 54.1146 18.4569 54.4062L17.6912 53.2344ZM20.1131 55.1406H29.3475V60.1562H20.1131V55.1406ZM27.8944 58.9531V56.3125H21.5819V58.9531H27.8944Z" fill="#2C2C2C"/>
</svg>
