<svg xmlns="http://www.w3.org/2000/svg" width="36" height="33" viewBox="0 0 36 33" fill="none">
  <path d="M33.8064 1.62791C33.8064 0.728839 33.0776 0 32.1785 0H3.71472C2.81565 0 2.08682 0.728839 2.08682 1.62791C2.08682 2.52698 2.81565 3.25581 3.71472 3.25581H32.1785C33.0776 3.25581 33.8064 2.52698 33.8064 1.62791ZM34.8498 20.3488C35.4261 20.3488 35.8932 19.8817 35.8932 19.3054V16.4821C35.8932 16.3471 35.8796 16.2124 35.8524 16.0802L34.1342 7.70281C33.9434 6.7725 33.1247 6.10465 32.175 6.10465H3.71824C2.76856 6.10465 1.94984 6.7725 1.75903 7.70281L0.0407854 16.0802C0.0136648 16.2124 0 16.3471 0 16.4821V19.3054C0 19.8817 0.46715 20.3488 1.04341 20.3488C1.61967 20.3488 2.08682 20.816 2.08682 21.3922V30.5581C2.08682 31.6627 2.98225 32.5581 4.08682 32.5581H19.2855C20.3901 32.5581 21.2855 31.6627 21.2855 30.5581V22.3488C21.2855 21.2443 22.181 20.3488 23.2855 20.3488H28.4675C29.5721 20.3488 30.4675 21.2443 30.4675 22.3488V30.8887C30.4675 31.8107 31.2149 32.5581 32.137 32.5581C33.059 32.5581 33.8064 31.8107 33.8064 30.8887V21.3922C33.8064 20.816 34.2736 20.3488 34.8498 20.3488ZM17.9466 27.3023C17.9466 28.4069 17.0512 29.3023 15.9466 29.3023H7.42572C6.32115 29.3023 5.42572 28.4069 5.42572 27.3023V22.3488C5.42572 21.2443 6.32115 20.3488 7.42572 20.3488H15.9466C17.0512 20.3488 17.9466 21.2443 17.9466 22.3488V27.3023Z" fill="current"/>
</svg>