<svg width="38" height="38" viewBox="0 0 38 38" fill="none" xmlns="http://www.w3.org/2000/svg">
<path d="M34.8319 32.248C34.8329 32.801 34.3849 33.2497 33.8319 33.2497H4.16699C3.61471 33.2497 3.16699 32.802 3.16699 32.2497V5.74974C3.16699 5.19745 3.61471 4.74974 4.16699 4.74974H5.33366C5.88594 4.74974 6.33366 5.19745 6.33366 5.74974V20.868C6.33366 21.8915 7.68883 22.2541 8.2 21.3675L14.5407 10.3693C14.8172 9.8896 15.431 9.72597 15.9097 10.0043L24.4672 14.9809C24.9454 15.259 25.5585 15.096 25.8355 14.6171L31.5464 4.74426C31.8229 4.26629 32.4344 4.10287 32.9125 4.3792L34.2876 5.17405C34.5962 5.35244 34.7865 5.68164 34.7871 6.03811L34.8319 32.248Z" fill="#B7B7B7"/>
</svg>
