<svg width="36" height="34" viewBox="0 0 36 34" fill="none" xmlns="http://www.w3.org/2000/svg">
<path d="M12.8814 16.575C11.6785 16.575 10.7022 17.527 10.7022 18.7C10.7022 19.873 11.6785 20.825 12.8814 20.825C14.0844 20.825 15.0607 19.873 15.0607 18.7C15.0607 17.527 14.0844 16.575 12.8814 16.575ZM23.3417 16.575C22.1388 16.575 21.1625 17.527 21.1625 18.7C21.1625 19.873 22.1388 20.825 23.3417 20.825C24.5447 20.825 25.521 19.873 25.521 18.7C25.521 17.527 24.5447 16.575 23.3417 16.575ZM18.1116 0C8.4881 0 0.677734 7.616 0.677734 17C0.677734 26.384 8.4881 34 18.1116 34C27.7351 34 35.5454 26.384 35.5454 17C35.5454 7.616 27.7351 0 18.1116 0ZM18.1116 31.3234C9.68139 31.3234 3.42264 25.2204 3.42264 17C3.42264 16.507 3.45751 15.2906 3.50981 14.8146C7.6242 13.0296 11.6262 9.7486 13.3347 5.6856C16.4902 10.0376 21.6855 12.8766 27.5607 12.8766C28.9206 12.8766 30.97 12.7236 32.2252 12.4346C32.5913 13.6416 32.8005 14.9336 32.8005 17C32.8005 25.2204 26.5418 31.3234 18.1116 31.3234Z" fill="#B7B7B7"/>
</svg>
